<svg xmlns="http://www.w3.org/2000/svg" viewBox="0 0 200 200" width="200" height="200">
  <rect width="200" height="200" fill="white" rx="8"/>
  <rect x="10" y="10" width="60" height="60" fill="#1f2937"/>
  <rect x="130" y="10" width="60" height="60" fill="#1f2937"/>
  <rect x="10" y="130" width="60" height="60" fill="#1f2937"/>
  <rect x="20" y="20" width="40" height="40" fill="white"/>
  <rect x="140" y="20" width="40" height="40" fill="white"/>
  <rect x="20" y="140" width="40" height="40" fill="white"/>
  <rect x="28" y="28" width="24" height="24" fill="#1f2937"/>
  <rect x="148" y="28" width="24" height="24" fill="#1f2937"/>
  <rect x="28" y="148" width="24" height="24" fill="#1f2937"/>
  <rect x="80" y="10" width="10" height="10" fill="#1f2937"/>
  <rect x="100" y="10" width="10" height="10" fill="#1f2937"/>
  <rect x="80" y="30" width="10" height="10" fill="#1f2937"/>
  <rect x="110" y="30" width="10" height="10" fill="#1f2937"/>
  <rect x="80" y="50" width="10" height="10" fill="#1f2937"/>
  <rect x="100" y="50" width="10" height="10" fill="#1f2937"/>
  <rect x="10" y="80" width="10" height="10" fill="#1f2937"/>
  <rect x="30" y="80" width="10" height="10" fill="#1f2937"/>
  <rect x="50" y="80" width="10" height="10" fill="#1f2937"/>
  <rect x="80" y="80" width="40" height="40" fill="#059669" rx="4"/>
  <rect x="130" y="80" width="10" height="10" fill="#1f2937"/>
  <rect x="150" y="80" width="10" height="10" fill="#1f2937"/>
  <rect x="180" y="80" width="10" height="10" fill="#1f2937"/>
  <rect x="80" y="130" width="10" height="10" fill="#1f2937"/>
  <rect x="100" y="130" width="10" height="10" fill="#1f2937"/>
  <rect x="130" y="150" width="10" height="10" fill="#1f2937"/>
  <rect x="150" y="130" width="10" height="10" fill="#1f2937"/>
  <rect x="180" y="150" width="10" height="10" fill="#1f2937"/>
  <rect x="130" y="180" width="10" height="10" fill="#1f2937"/>
  <rect x="160" y="180" width="10" height="10" fill="#1f2937"/>
  <rect x="180" y="180" width="10" height="10" fill="#1f2937"/>
  <text x="100" y="105" text-anchor="middle" fill="white" font-size="14" font-weight="bold" font-family="sans-serif">QR</text>
</svg>